<svg width="70" height="64" viewBox="0 0 70 64" fill="none" xmlns="http://www.w3.org/2000/svg">
<g clip-path="url(#clip0_16_69)">
<path d="M19.0914 26.0596C19.548 24.7953 20.2453 24.3853 21.1641 24.4111L20.5584 24.0106C20.2303 19.9166 21.1928 12.8144 16.7316 11.4697C25.1727 1.07463 34.9016 -4.57796 42.2064 4.66863C51.007 5.12913 54.5371 19.0651 47.518 24.9316L47.477 25.2776C47.7518 25.1945 48.0266 25.1414 48.2904 25.121C48.8086 25.0814 49.3049 25.1659 49.7273 25.3893C50.1908 25.6359 50.5449 26.0351 50.7268 26.6005C50.9018 27.1414 50.9086 27.8321 50.6789 28.6809L49.5811 31.7844C49.4033 32.2885 49.2406 32.6428 48.8865 32.9234C48.5215 33.2109 48.0799 33.3185 47.3963 33.2817C47.2828 33.2763 47.1693 33.264 47.0586 33.2436C47.0042 34.0057 46.8346 34.7553 46.5555 35.467C46.1768 36.437 45.649 37.2286 45.1295 37.9588C44.5416 38.7831 43.9195 39.5297 43.2701 40.2C43.776 41.9697 44.4281 43.2735 45.2102 44.2654C49.1805 47.1101 59.8732 47.779 63.5961 49.8471C68.9705 52.8444 68.8229 58.6373 70 63.9997H0C1.16621 58.685 1.0459 52.7967 6.40391 49.8471C11.1234 47.2286 21.1381 47.3962 25.1289 44.0024C25.7031 43.106 26.1885 42.0324 26.5604 40.7517C25.7086 39.8689 24.9102 38.8199 24.1828 37.6019L24.1336 37.5242C23.4773 36.4261 22.6844 35.1005 22.4355 33.2599L22.2223 33.264C21.7752 33.2586 21.3445 33.1564 20.9412 32.9289C20.2932 32.561 19.8393 31.9343 19.533 31.2272L19.5057 31.1564C19.1611 30.3267 19.0039 29.3812 18.967 28.6659C18.9533 28.3989 18.9533 27.8689 18.9684 27.3621V27.3553C18.9793 26.9207 19.0025 26.4997 19.0354 26.264C19.0463 26.1918 19.0641 26.1237 19.0914 26.0596ZM44.1014 45.6346L44.0152 45.5324C43.1635 44.512 42.4457 43.2231 41.877 41.5433C40.9486 42.2994 39.8973 42.9411 38.7666 43.418L38.7078 43.4438H38.7064C37.2408 44.0814 35.7273 44.3893 34.2275 44.3553C33.4141 44.3376 32.6061 44.219 31.8117 43.9997L31.7816 43.9915C30.4814 43.6468 29.1895 43.0256 27.9535 42.076C27.4449 43.5365 26.7846 44.7463 26.0121 45.7449L30.6496 57.031L33.3744 50.7695L32.0441 49.3212C31.0447 47.8648 31.6258 46.1741 33.2404 45.9139C33.9459 45.8008 36.8006 45.7844 37.4541 45.9588C38.917 46.3485 39.3531 47.9983 38.4959 49.3212L37.1656 50.7695L39.8672 57.031L44.1014 45.6346ZM28.0533 39.8866L28.108 39.9329C30.2066 41.9329 32.5322 42.685 34.7402 42.5992C37.4035 42.4943 39.9205 41.1863 41.6924 39.3771C41.7484 39.3199 41.8127 39.2681 41.8852 39.2286C42.5414 38.5733 43.1717 37.8267 43.7664 36.9929C44.223 36.3512 44.6852 35.6605 44.9955 34.8662C45.2977 34.0923 45.4699 33.1863 45.3756 32.0719C45.3647 31.8921 45.407 31.7068 45.5137 31.546C45.6354 31.3617 45.8256 31.233 46.0425 31.1883C46.2594 31.1436 46.4852 31.1865 46.6703 31.3076C46.8166 31.403 46.9656 31.482 47.1146 31.5365C47.2432 31.5828 47.3676 31.6114 47.4811 31.6169C47.7203 31.6291 47.8283 31.6291 47.8434 31.6169C47.8693 31.5978 47.9227 31.4547 48.002 31.2299L49.067 28.2245C49.2023 27.7177 49.2119 27.3526 49.134 27.1101C49.0943 26.9874 49.0246 26.9043 48.9398 26.8594C48.8141 26.7926 48.6295 26.7695 48.4148 26.7858C47.9473 26.8212 47.4004 27.0474 46.915 27.4139C46.7373 27.5474 46.5062 27.6114 46.2697 27.5705C45.8145 27.4929 45.5068 27.061 45.5848 26.6073C46.3736 22.0201 46.0127 19.031 45.0324 16.9929C44.1738 15.2068 42.8039 14.125 41.3178 13.3171C38.0201 15.8335 35.6986 16.121 33.3826 16.4057C31.4672 16.6414 29.5559 16.8771 27.0238 18.6223C25.8275 19.4466 25.0305 20.4438 24.6189 21.6019C24.1965 22.7913 24.1637 24.1754 24.5055 25.7436C24.5492 25.9016 24.5451 26.0746 24.4836 26.2408C24.3277 26.6727 23.8465 26.8962 23.4131 26.7408L22.6461 26.4643C21.6562 26.1196 20.9549 25.9588 20.6842 26.5787C20.6623 26.779 20.6473 27.0855 20.6391 27.4016V27.4084C20.6268 27.8648 20.6268 28.3417 20.6377 28.5814C20.6664 29.1468 20.7854 29.8825 21.0437 30.5065L21.0738 30.5678C21.2475 30.9725 21.4785 31.3158 21.7656 31.4779C21.9105 31.5596 22.0719 31.5978 22.2414 31.5992C22.4492 31.6019 22.6803 31.5583 22.9264 31.4861C23.0043 31.4588 23.0877 31.4438 23.1752 31.4425C23.2849 31.4398 23.3941 31.4586 23.4964 31.498C23.5988 31.5373 23.6924 31.5964 23.7719 31.6718C23.8514 31.7472 23.9152 31.8375 23.9597 31.9375C24.0041 32.0374 24.0284 32.1451 24.0311 32.2545C24.0762 34.1754 24.9033 35.5569 25.5691 36.67L25.6156 36.7477C26.3594 37.9929 27.1797 39.0378 28.0533 39.8866Z" fill="#6C47B2"/>
</g>
<defs>
<clipPath id="clip0_16_69">
<rect width="70" height="64" fill="white"/>
</clipPath>
</defs>
</svg>
