<svg width="79" height="111" viewBox="0 0 79 111" fill="none" xmlns="http://www.w3.org/2000/svg">
<path d="M79 21.8141L71.8029 102.072L39.4516 111L7.18948 102.085L0 21.8141H79Z" fill="#264DE4"/>
<path d="M65.6414 96.9616L71.7918 28.3774H39.5V104.176L65.6414 96.9616Z" fill="#2965F1"/>
<path d="M16.4818 58.1486L17.3682 67.9933H39.5V58.1486H16.4818Z" fill="#EBEBEB"/>
<path d="M39.5 38.2224H39.4658H14.7006L15.5997 48.0674H39.5V38.2224Z" fill="#EBEBEB"/>
<path d="M39.5 93.9595V83.7167L39.4567 83.7282L28.4422 80.7676L27.738 72.9159H22.3858H17.8101L19.1956 88.3737L39.4545 93.9721L39.5 93.9595Z" fill="#EBEBEB"/>
<path d="M51.6442 67.9934L50.4962 80.7614L39.4658 83.725V93.9674L59.7408 88.3738L59.8896 86.7106L62.2136 60.7923L62.4549 58.1487L64.2403 38.2224H39.4658V48.0674H53.4018L52.5019 58.1487H39.4658V67.9934H51.6442Z" fill="white"/>
</svg>
