<svg width="93" height="84" viewBox="0 0 93 84" fill="none" xmlns="http://www.w3.org/2000/svg">
<path d="M46.5 59.2405C71.5929 59.2405 91.9348 51.5216 91.9348 42C91.9348 32.4783 71.5929 24.7595 46.5 24.7595C21.407 24.7595 1.06519 32.4783 1.06519 42C1.06519 51.5216 21.407 59.2405 46.5 59.2405Z" stroke="#61DAFB"/>
<path d="M31.4764 50.6203C44.0228 72.2169 60.9201 85.865 69.2174 81.1042C77.5147 76.3434 74.0701 54.9764 61.5237 33.3798C48.9772 11.7832 32.08 -1.86496 23.7826 2.89587C15.4853 7.65669 18.9299 29.0236 31.4764 50.6203Z" stroke="#61DAFB"/>
<path d="M31.4763 33.3798C18.9298 54.9765 15.4852 76.3434 23.7825 81.1042C32.0799 85.8651 48.9771 72.2169 61.5236 50.6203C74.07 29.0236 77.5146 7.6567 69.2173 2.89588C60.92 -1.86494 44.0227 11.7832 31.4763 33.3798Z" stroke="#61DAFB"/>
</svg>
