<svg width="110" height="110" viewBox="0 0 110 110" fill="none" xmlns="http://www.w3.org/2000/svg">
<path d="M93.8672 21.563L86.7854 100.897L54.9525 109.722L23.2072 100.909L16.1328 21.563H93.8672Z" fill="#E44D26"/>
<path d="M55 102.977L80.7226 95.8454L86.7742 28.0507H55V102.977Z" fill="#F16529"/>
<path d="M41.2333 47.514H55V37.7825H30.598L30.8308 40.3932L33.2228 67.2107H55V57.4792H42.1227L41.2333 47.514ZM43.4266 72.0766H33.6576L35.0209 87.3565L54.9553 92.89L55 92.8779V82.753L54.9574 82.7643L44.1195 79.8378L43.4266 72.0766Z" fill="#EBEBEB"/>
<path d="M54.9665 67.2107H66.9498L65.8199 79.8317L54.9662 82.7612V92.8855L74.9164 87.3565L75.0627 85.7123L77.3498 60.0924L77.5872 57.4792H54.9665V67.2107ZM54.9665 47.4902V47.514H78.4727L78.6677 45.3268L79.1113 40.3932L79.3438 37.7825H54.9665V47.4902Z" fill="white"/>
</svg>
