<svg width="100" height="100" viewBox="0 0 100 100" fill="none" xmlns="http://www.w3.org/2000/svg">
<path d="M50 8.33334C27.0833 8.33334 8.33331 27.0833 8.33331 50C8.33331 72.9167 27.0833 91.6667 50 91.6667C72.9166 91.6667 91.6666 72.9167 91.6666 50C91.6666 27.0833 72.9166 8.33334 50 8.33334Z" fill="#F2F2F2"/>
<path d="M37.5 39.5833H29.1667V70.8333H37.5V39.5833Z" fill="#6C47B2"/>
<path d="M33.3334 35.4167C30.8334 35.4167 29.1667 33.5417 29.1667 31.25C29.1667 28.9583 30.8334 27.0833 33.3334 27.0833C35.8334 27.0833 37.5 28.9583 37.5 31.25C37.5 33.5417 35.8334 35.4167 33.3334 35.4167Z" fill="#6C47B2"/>
<path d="M72.9167 51.0417C72.9167 44.7917 67.7083 39.5833 61.4583 39.5833C57.5 39.5833 54.1667 41.4583 52.0833 44.375V39.5833H43.75V70.8333H52.0833V54.1667C52.0833 50.625 54.7917 47.9167 58.3333 47.9167C61.875 47.9167 64.5833 50.625 64.5833 54.1667V70.8333H72.9167C72.9167 70.8333 72.9167 51.875 72.9167 51.0417Z" fill="#6C47B2"/>
</svg>
