<svg width="109" height="109" viewBox="0 0 109 109" fill="none" xmlns="http://www.w3.org/2000/svg">
<g clip-path="url(#clip0_15_31)">
<path d="M16.4108 22.9474H92.5892C93.8914 22.9604 95.1361 23.4932 96.0536 24.4304C96.9712 25.3675 97.4877 26.6334 97.4913 27.954V81.046C97.4986 82.059 97.2005 83.0501 96.6369 83.8866C96.5356 84.1546 96.3779 84.3969 96.1747 84.5968C96.0382 84.7292 95.8823 84.8394 95.7125 84.9235C94.829 85.6795 93.7103 86.0945 92.5542 86.0952H16.4108C15.1146 86.0823 13.8752 85.5544 12.9586 84.6249C12.042 83.6954 11.5215 82.4385 11.5087 81.1241V27.954C11.5123 26.6334 12.0288 25.3675 12.9464 24.4304C13.8639 23.4932 15.1086 22.9604 16.4108 22.9474ZM16.2007 78.9368L41.9577 51.7943L16.2007 29.7223V78.9368ZM45.8373 55.1818L18.3156 82.2106H90.4463L64.1501 55.1818L56.4468 61.7224C56.1074 62.0082 55.68 62.1647 55.2388 62.1647C54.7976 62.1647 54.3702 62.0082 54.0308 61.7224L45.8373 55.1818ZM67.9667 51.7446L92.7993 79.1569V29.4809L67.9667 51.7446ZM18.6237 26.7894L55.1653 56.8222L90.0961 26.7894H18.6237Z" fill="#6C47B2"/>
</g>
<defs>
<clipPath id="clip0_15_31">
<rect width="86.0526" height="63.1053" fill="white" transform="translate(11.4737 22.9474)"/>
</clipPath>
</defs>
</svg>
