<svg width="83" height="83" viewBox="0 0 83 83" fill="none" xmlns="http://www.w3.org/2000/svg">
<g clip-path="url(#clip0_44_25)">
<path d="M41.2406 0.225586L43.4557 4.38596C43.9537 5.15371 44.4932 5.83327 45.1287 6.46615C46.9832 8.32068 48.7444 10.2634 50.3266 12.3436C54.0797 17.2717 56.6112 22.7445 58.4191 28.6635C59.5032 32.2791 60.092 35.9882 60.1361 39.7388C60.3177 50.9516 56.4737 60.5796 48.7236 68.5813C47.4579 69.847 46.1039 71.0194 44.6514 72.0621C43.8837 72.0621 43.5206 71.4733 43.2041 70.9312C42.6153 69.9378 42.2548 68.8043 42.0732 67.6761C41.8009 66.3195 41.6219 64.963 41.7101 63.5624V62.9295C41.6479 62.7946 40.9709 0.544617 41.2406 0.225586Z" fill="#599636"/>
<path d="M41.2406 0.0882562C41.1498 -0.0933063 41.0591 0.0441625 40.9683 0.13235C41.0124 1.04016 40.6959 1.84941 40.2005 2.62235C39.6558 3.3901 38.9348 3.97888 38.2111 4.61176C34.1908 8.09257 31.0264 12.297 28.4923 16.9995C25.1205 23.3283 23.3827 30.1109 22.8898 37.2515C22.6642 39.8271 23.7043 48.9156 24.5161 51.5379C26.7312 58.4995 30.71 64.3328 35.8638 69.3958C37.1295 70.6149 38.4835 71.7458 39.8841 72.8326C40.2913 72.8326 40.3354 72.4694 40.4288 72.1997C40.6073 71.6225 40.7434 71.033 40.836 70.4359L41.7438 63.6559L41.2406 0.0882562Z" fill="#6CAC48"/>
<path d="M43.4557 74.8167C43.5465 73.7792 44.0445 72.9181 44.5866 72.0595C44.0419 71.8339 43.6372 71.3852 43.3208 70.8846C43.0485 70.4333 42.8228 69.8912 42.6464 69.3932C42.0136 67.4945 41.8787 65.5025 41.6971 63.5624V62.3875C41.4715 62.569 41.4248 64.1045 41.4248 64.3328C41.2928 66.3833 41.0207 68.4224 40.6103 70.4359C40.4755 71.2503 40.3847 72.0621 39.8841 72.7858C39.8841 72.8766 39.8841 72.9674 39.9282 73.1022C40.7426 75.4989 40.9657 77.9396 41.1032 80.427V81.3348C41.1032 82.419 41.0591 82.1907 41.9591 82.5539C42.3222 82.6887 42.7268 82.7354 43.09 83.0052C43.3623 83.0052 43.4064 82.7795 43.4064 82.5979L43.2715 81.1065V76.9462C43.2274 76.2199 43.3623 75.4989 43.4531 74.8193L43.4557 74.8167Z" fill="#C2BFBF"/>
</g>
<defs>
<clipPath id="clip0_44_25">
<rect width="83" height="83" fill="white"/>
</clipPath>
</defs>
</svg>
