<svg width="118" height="72" viewBox="0 0 118 72" fill="none" xmlns="http://www.w3.org/2000/svg">
<g clip-path="url(#clip0_27_10)">
<path d="M58.323 72.0002C57.9336 72.0002 57.5468 71.8984 57.2053 71.7026L53.6478 69.6042C53.1164 69.3081 53.3757 69.2034 53.5509 69.1431C54.2594 68.896 54.4032 68.8402 55.1594 68.4123C55.2389 68.3671 55.3429 68.3831 55.4243 68.4309L58.1574 70.0467C58.2561 70.0998 58.3961 70.0998 58.4876 70.0467L69.144 63.9184C69.2427 63.8626 69.3067 63.7483 69.3067 63.6314V51.3802C69.3067 51.258 69.2427 51.149 69.1419 51.0879L58.4897 44.965C58.391 44.9065 58.2603 44.9065 58.1616 44.965L47.5116 51.0879C47.4084 51.1464 47.3427 51.2606 47.3427 51.3776V63.6288C47.3427 63.7457 47.4068 63.8573 47.5081 63.9131L50.4263 65.5927C52.0108 66.382 52.979 65.4518 52.979 64.5164V52.4246C52.979 52.2519 53.1151 52.119 53.2885 52.119H54.6382C54.8062 52.119 54.945 52.2519 54.945 52.4246V64.5217C54.945 66.6264 53.7926 67.8356 51.7894 67.8356C51.1732 67.8356 50.6877 67.8356 49.3326 67.1712L46.5372 65.5661C45.8463 65.1675 45.4195 64.4234 45.4195 63.6288V51.3776C45.4195 50.5803 45.8463 49.8362 46.5372 49.4429L57.2043 43.312C57.8791 42.932 58.7754 42.932 59.4449 43.312L70.0987 49.4456C70.7869 49.8415 71.2164 50.583 71.2164 51.3802V63.6314C71.2164 64.426 70.7869 65.1675 70.0987 65.5661L59.4449 71.697C59.1035 71.8937 58.7167 71.9946 58.3219 71.9946" fill="#689F63"/>
<path d="M61.6146 63.5583C56.9519 63.5583 55.9743 61.4259 55.9743 59.6374C55.9743 59.4674 56.112 59.3318 56.2829 59.3318H57.6593C57.8114 59.3318 57.9394 59.4421 57.9634 59.5917C58.1715 60.989 58.7903 61.6938 61.6098 61.6938C63.8558 61.6938 64.8108 61.1884 64.8108 60.0018C64.8108 59.3188 64.5387 58.8112 61.0497 58.471C58.1315 58.184 56.3283 57.5436 56.3283 55.2182C56.3283 53.0763 58.1421 51.8007 61.1804 51.8007C64.592 51.8007 66.2832 52.9806 66.4966 55.5159C66.5046 55.6036 66.4726 55.6886 66.4139 55.7524C66.3552 55.8135 66.2725 55.8507 66.1872 55.8507H64.8028C64.6587 55.8507 64.5333 55.7497 64.504 55.6116C64.1706 54.1419 63.365 53.6716 61.175 53.6716C58.7236 53.6716 58.4382 54.522 58.4382 55.1598C58.4382 55.9331 58.7743 56.159 62.082 56.5948C65.3576 57.028 66.9127 57.6392 66.9127 59.9327C66.9127 62.2447 64.9761 63.5708 61.5992 63.5708M74.5789 50.5782H74.9364C75.2298 50.5782 75.2858 50.3736 75.2858 50.254C75.2858 49.9404 75.0697 49.9404 74.9497 49.9404H74.5816L74.5789 50.5782ZM74.1441 49.5737H74.9364C75.2084 49.5737 75.7419 49.5737 75.7419 50.1796C75.7419 50.6021 75.4699 50.6898 75.3071 50.743C75.6246 50.7642 75.6459 50.9715 75.6886 51.2638C75.7099 51.4472 75.7446 51.7635 75.8086 51.8698H75.3205C75.3071 51.7635 75.2325 51.1788 75.2325 51.1469C75.2004 51.0167 75.1551 50.9529 74.9924 50.9529H74.5896V51.8724H74.1441V49.5737ZM73.1919 50.7164C73.1919 51.6678 73.9628 52.4385 74.9097 52.4385C75.8646 52.4385 76.6355 51.6518 76.6355 50.7164C76.6355 49.7623 75.854 49.0049 74.907 49.0049C73.9734 49.0049 73.1892 49.7517 73.1892 50.7137M76.9663 50.7217C76.9663 51.8485 76.0407 52.768 74.9124 52.768C73.792 52.768 72.8584 51.8591 72.8584 50.7217C72.8584 49.563 73.8134 48.6754 74.9124 48.6754C76.0194 48.6754 76.9636 49.5657 76.9636 50.7217" fill="#689F63"/>
<path fill-rule="evenodd" clip-rule="evenodd" d="M25.3241 24.0638C25.3241 23.5748 25.0653 23.1257 24.6417 22.8825L13.3435 16.4062C13.1528 16.2945 12.9391 16.2361 12.7225 16.2281H12.6057C12.3891 16.2361 12.1754 16.2945 11.9815 16.4062L0.683834 22.8825C0.262911 23.127 0.000434875 23.5762 0.000434875 24.0651L0.0252421 41.5091C0.0252421 41.751 0.150612 41.9768 0.364007 42.0964C0.572068 42.224 0.833478 42.224 1.04154 42.0964L7.75816 38.2643C8.18229 38.0129 8.44103 37.5685 8.44103 37.0843V28.935C8.44103 28.4487 8.69977 27.9996 9.12256 27.7578L11.9821 26.117C12.1944 25.9948 12.4275 25.9342 12.6649 25.9342C12.8986 25.9342 13.1371 25.9942 13.3435 26.1167L16.2017 27.757C16.6247 27.9988 16.8846 28.4479 16.8846 28.9343V37.083C16.8846 37.5667 17.1468 38.0131 17.5688 38.263L24.2811 42.0924C24.4918 42.2173 24.754 42.2173 24.964 42.0924C25.171 41.9729 25.3022 41.747 25.3022 41.5051L25.3241 24.0638ZM78.6377 33.1462C78.6377 33.2676 78.5729 33.38 78.467 33.4401L74.5864 35.6687C74.4811 35.729 74.3509 35.729 74.2458 35.6687L70.3647 33.4401C70.258 33.3798 70.1939 33.2673 70.1939 33.1462V28.6826C70.1939 28.5609 70.258 28.4487 70.362 28.3876L74.2405 26.1553C74.3472 26.0942 74.4779 26.0942 74.5846 26.1553L78.4657 28.3876C78.5724 28.4487 78.6364 28.5609 78.6364 28.6826L78.6377 33.1462ZM79.6861 0.0860462C79.4743 -0.0314163 79.2166 -0.0282272 79.0075 0.0932215C78.7994 0.215468 78.6708 0.438699 78.6708 0.680534V17.9544C78.6708 18.1245 78.5801 18.2813 78.4324 18.3663C78.2856 18.4514 78.1029 18.4514 77.9549 18.3663L75.1247 16.7423C74.7033 16.4994 74.1842 16.4994 73.7611 16.7423L62.4592 23.2408C62.0369 23.4826 61.7763 23.9317 61.7763 24.4154V37.416C61.7763 37.9023 62.0369 38.3488 62.4592 38.5933L73.7611 45.0962C74.1831 45.3381 74.7027 45.3381 75.1261 45.0962L86.428 38.5906C86.8495 38.3461 87.1109 37.8997 87.1109 37.4133V5.01283C87.1109 4.51959 86.8415 4.06595 86.4093 3.82491L79.6861 0.0860462ZM117.322 28.5651C117.742 28.3222 118 27.8736 118 27.39V24.2392C118 23.7545 117.741 23.3072 117.321 23.0633L106.091 16.5683C105.667 16.3238 105.147 16.3238 104.722 16.5683L93.4231 23.0659C92.999 23.3104 92.7402 23.7569 92.7402 24.2432V37.2385C92.7402 37.7275 93.0043 38.1792 93.4285 38.4211L104.656 44.7965C105.069 45.033 105.576 45.0356 105.995 44.8044L112.786 41.0441C112.999 40.9245 113.136 40.6986 113.136 40.4541C113.136 40.2096 113.005 39.981 112.791 39.8615L101.423 33.3612C101.209 33.2416 101.079 33.0157 101.079 32.7738V28.6972C101.079 28.4538 101.207 28.2295 101.42 28.1083L104.957 26.0753C105.168 25.953 105.427 25.953 105.637 26.0753L109.177 28.1083C109.388 28.2279 109.518 28.4538 109.518 28.6956V31.9006C109.518 32.1424 109.649 32.3683 109.86 32.4905C110.071 32.6101 110.332 32.6101 110.543 32.4879L117.322 28.5651Z" fill="#333333"/>
<path fill-rule="evenodd" clip-rule="evenodd" d="M105.241 27.9572C105.321 27.9101 105.421 27.9101 105.502 27.9572L107.671 29.2035C107.752 29.2503 107.802 29.3364 107.802 29.4294V31.9248C107.802 32.0178 107.752 32.104 107.671 32.1507L105.502 33.3971C105.421 33.4441 105.321 33.4441 105.241 33.3971L103.074 32.1507C102.991 32.104 102.94 32.0178 102.94 31.9248V29.4294C102.94 29.3364 102.988 29.2503 103.071 29.2035L105.241 27.9572Z" fill="#689F63"/>
<mask id="mask0_27_10" style="mask-type:luminance" maskUnits="userSpaceOnUse" x="30" y="16" width="27" height="30">
<path d="M42.8724 16.6332L31.6344 23.0955C31.2135 23.3374 30.9553 23.7838 30.9553 24.2664V37.2001C30.9553 37.6829 31.2135 38.1291 31.6344 38.371L42.8732 44.8383C43.2933 45.0793 43.8113 45.0793 44.2309 44.8383L55.4678 38.371C55.8866 38.1291 56.1453 37.6827 56.1453 37.2001V24.2664C56.1453 23.7838 55.8866 23.3374 55.4651 23.0955L44.2298 16.6332C44.0191 16.5128 43.7844 16.4525 43.5496 16.4525C43.3149 16.4525 43.0802 16.5128 42.8694 16.6332" fill="white"/>
</mask>
<g mask="url(#mask0_27_10)">
<path d="M67.5017 21.9982L35.8351 6.53406L19.5984 39.5336L51.2641 54.9985L67.5017 21.9982Z" fill="url(#paint0_linear_27_10)"/>
</g>
<mask id="mask1_27_10" style="mask-type:luminance" maskUnits="userSpaceOnUse" x="31" y="16" width="25" height="30">
<path d="M31.2338 38.0212C31.3413 38.1602 31.4757 38.2806 31.6339 38.3709L41.274 43.9185L42.8798 44.838C43.1199 44.9762 43.3936 45.0346 43.6625 45.0147C43.7521 45.0075 43.8417 44.9908 43.9292 44.9661L55.7817 23.3445C55.691 23.2461 55.5849 23.1638 55.4659 23.0947L48.1075 18.8612L44.2178 16.6316C44.1074 16.5678 43.9876 16.5226 43.8657 16.4907L31.2338 38.0212Z" fill="white"/>
</mask>
<g mask="url(#mask1_27_10)">
<path d="M17.5423 26.5721L39.9022 56.7224L69.4734 34.9557L47.1123 4.80615L17.5423 26.5721Z" fill="url(#paint1_linear_27_10)"/>
</g>
<mask id="mask2_27_10" style="mask-type:luminance" maskUnits="userSpaceOnUse" x="31" y="16" width="26" height="30">
<path d="M43.4155 16.4599C43.2269 16.4785 43.0425 16.5369 42.8726 16.6332L31.6667 23.0768L43.7502 45.0041C43.9183 44.9802 44.0836 44.9243 44.233 44.8382L55.471 38.3709C55.8177 38.1705 56.0551 37.8314 56.1272 37.4471L43.8089 16.4819C43.7182 16.4641 43.6275 16.4548 43.5342 16.4548C43.4968 16.4548 43.4595 16.4567 43.4221 16.4601" fill="white"/>
</mask>
<g mask="url(#mask2_27_10)">
<path d="M31.6663 16.4548V45.0046H56.1222V16.4548H31.6663Z" fill="url(#paint2_linear_27_10)"/>
</g>
</g>
<defs>
<linearGradient id="paint0_linear_27_10" x1="51.6589" y1="14.2418" x2="35.5206" y2="47.2867" gradientUnits="userSpaceOnUse">
<stop offset="0.3" stop-color="#3E863D"/>
<stop offset="0.5" stop-color="#55934F"/>
<stop offset="0.8" stop-color="#5AAD45"/>
</linearGradient>
<linearGradient id="paint1_linear_27_10" x1="28.8562" y1="41.8201" x2="58.3508" y2="19.9458" gradientUnits="userSpaceOnUse">
<stop offset="0.57" stop-color="#3E863D"/>
<stop offset="0.72" stop-color="#619857"/>
<stop offset="1" stop-color="#76AC64"/>
</linearGradient>
<linearGradient id="paint2_linear_27_10" x1="31.6745" y1="30.7305" x2="56.1268" y2="30.7305" gradientUnits="userSpaceOnUse">
<stop offset="0.16" stop-color="#6BBF47"/>
<stop offset="0.38" stop-color="#79B461"/>
<stop offset="0.47" stop-color="#75AC64"/>
<stop offset="0.7" stop-color="#659E5A"/>
<stop offset="0.9" stop-color="#3E863D"/>
</linearGradient>
<clipPath id="clip0_27_10">
<rect width="118" height="72" fill="white"/>
</clipPath>
</defs>
</svg>
