<svg width="119" height="105" viewBox="0 0 119 105" fill="none" xmlns="http://www.w3.org/2000/svg">
<g clip-path="url(#clip0_86_19)">
<path d="M59.5 63.0187C65.3578 63.0187 70.1065 58.3093 70.1065 52.4999C70.1065 46.6906 65.3578 41.9812 59.5 41.9812C53.6422 41.9812 48.8935 46.6906 48.8935 52.4999C48.8935 58.3093 53.6422 63.0187 59.5 63.0187Z" fill="#61DAFB"/>
<path d="M59.5 74.0506C90.9322 74.0506 116.413 64.4021 116.413 52.5C116.413 40.598 90.9322 30.9495 59.5 30.9495C28.0678 30.9495 2.58698 40.598 2.58698 52.5C2.58698 64.4021 28.0678 74.0506 59.5 74.0506Z" stroke="#61DAFB"/>
<path d="M40.6809 63.2753C56.397 90.2711 77.563 107.331 87.9566 101.38C98.3501 95.4292 94.0352 68.7205 78.3191 41.7247C62.603 14.7289 41.437 -2.33126 31.0435 3.61978C20.65 9.5708 24.9648 36.2795 40.6809 63.2753Z" stroke="#61DAFB"/>
<path d="M40.6809 41.7247C24.9648 68.7205 20.65 95.4291 31.0435 101.38C41.437 107.331 62.603 90.271 78.3191 63.2752C94.0352 36.2794 98.35 9.57076 87.9565 3.61973C77.563 -2.3313 56.397 14.7289 40.6809 41.7247Z" stroke="#61DAFB"/>
</g>
<defs>
<clipPath id="clip0_86_19">
<rect width="119" height="105" fill="white"/>
</clipPath>
</defs>
</svg>
