<svg width="123" height="92" viewBox="0 0 123 92" fill="none" xmlns="http://www.w3.org/2000/svg">
<g clip-path="url(#clip0_86_65)">
<path d="M105.951 53.3251C101.659 53.3477 97.9279 54.387 94.8039 55.9233C93.6577 53.6414 92.5115 51.6081 92.3092 50.117C92.0845 48.3773 91.8148 47.3154 92.0845 45.2369C92.3541 43.1583 93.5678 40.1987 93.5453 39.9728C93.5228 39.7468 93.2756 38.685 90.8034 38.6624C88.3312 38.6398 86.1961 39.1368 85.9489 39.792C85.7017 40.4472 85.2297 41.9383 84.915 43.4746C84.488 45.7339 79.9706 53.7996 77.386 58.0245C76.5545 56.3752 75.8353 54.9292 75.678 53.777C75.4532 52.0373 75.1835 50.9755 75.4532 48.8969C75.7229 46.8184 76.9366 43.8587 76.9141 43.6328C76.8916 43.4069 76.6444 42.345 74.1722 42.3224C71.7 42.2998 69.5649 42.7969 69.3176 43.4521C69.0704 44.1073 68.8007 45.6436 68.2838 47.1347C67.7669 48.6258 61.7662 62.0912 60.1929 65.5705C59.3839 67.3553 58.6871 68.7787 58.1927 69.7502C58.1927 69.7502 58.1702 69.8179 58.1028 69.9309C57.6758 70.7668 57.4286 71.2187 57.4286 71.2187C57.4286 71.2187 57.4286 71.2187 57.4286 71.2413C57.0915 71.8513 56.7319 72.4161 56.5521 72.4161C56.4172 72.4161 56.17 70.7894 56.597 68.5753C57.496 63.8986 59.6311 56.6237 59.6086 56.3752C59.6086 56.2396 60.0132 54.9744 58.2152 54.3192C56.4622 53.664 55.8329 54.7485 55.6755 54.7485C55.5182 54.7485 55.4059 55.1326 55.4059 55.1326C55.4059 55.1326 57.3611 46.954 51.6751 46.954C48.1241 46.954 43.2246 50.8625 40.7973 54.387C39.2691 55.2229 36.0102 57.0078 32.5267 58.9282C31.2007 59.6737 29.8297 60.4193 28.5487 61.1197C28.4588 61.0293 28.3689 60.9163 28.279 60.826C21.4017 53.4381 8.6811 48.2192 9.22049 38.3009C9.42276 34.686 10.6589 25.197 33.6504 13.6746C52.5741 4.2986 67.6321 6.89679 70.2391 12.658C73.9699 20.8818 62.1707 36.1546 42.6178 38.3687C35.1562 39.2046 31.2456 36.3127 30.2567 35.2282C29.2229 34.0986 29.0656 34.0308 28.6835 34.2568C28.0542 34.5957 28.4588 35.6123 28.6835 36.1997C29.2679 37.7361 31.6726 40.4472 35.7406 41.7802C39.3365 42.955 48.0791 43.6102 58.6647 39.4983C70.5088 34.8894 79.7684 22.0792 77.0489 11.3476C74.3295 0.457816 56.3498 -3.13445 39.3365 2.94303C29.2229 6.55789 18.2553 12.2513 10.3667 19.6618C0.994776 28.473 -0.488549 36.132 0.118266 39.3402C2.2983 50.727 17.9182 58.1374 24.1661 63.6275C23.8515 63.8082 23.5593 63.9664 23.3121 64.1019C20.1881 65.6609 8.27656 71.9191 5.30991 78.5388C1.93871 86.0396 5.8493 91.4167 8.43388 92.1397C16.4573 94.3764 24.7055 90.3549 29.133 83.7126C33.5605 77.0702 33.0211 68.4398 30.9759 64.486C30.9535 64.4408 30.931 64.3956 30.886 64.3505C31.6951 63.876 32.5267 63.379 33.3358 62.9045C34.9315 61.9556 36.5047 61.0745 37.8532 60.3515C37.089 62.4527 36.5272 64.9605 36.2575 68.5753C35.9204 72.8228 37.6509 78.3354 39.9208 80.5044C40.9322 81.4533 42.1233 81.4759 42.8875 81.4759C45.5395 81.4759 46.7306 79.2618 48.0567 76.641C49.6748 73.4328 51.1357 69.705 51.1357 69.705C51.1357 69.705 49.3152 79.7814 54.2596 79.7814C56.0576 79.7814 57.8781 77.4317 58.6872 76.2343C58.6872 76.2569 58.6872 76.2569 58.6872 76.2569C58.6872 76.2569 58.7321 76.1891 58.822 76.031C59.0018 75.7373 59.1142 75.5565 59.1142 75.5565C59.1142 75.5565 59.1142 75.5339 59.1142 75.5113C59.8334 74.2461 61.4515 71.3768 63.8563 66.6097C66.9578 60.4645 69.9469 52.7829 69.9469 52.7829C69.9469 52.7829 70.2166 54.6581 71.1381 57.7759C71.6775 59.606 72.8012 61.6167 73.7002 63.5597C72.981 64.5764 72.5315 65.1412 72.5315 65.1412C72.5315 65.1412 72.5315 65.1412 72.554 65.1638C71.9697 65.932 71.3404 66.7679 70.6437 67.5812C68.1939 70.5183 65.2722 73.8847 64.8677 74.8561C64.3957 76.0084 64.5081 76.8443 65.4071 77.5221C66.0588 78.0192 67.2275 78.0869 68.4187 78.0191C70.6212 77.861 72.1719 77.3188 72.9361 76.9799C74.1272 76.5506 75.5206 75.8954 76.8242 74.9239C79.229 73.1391 80.6898 70.5861 80.555 67.2198C80.4875 65.3671 79.8807 63.5145 79.1391 61.7749C79.3638 61.4586 79.5661 61.1423 79.7908 60.826C83.589 55.2455 86.5332 49.1229 86.5332 49.1229C86.5332 49.1229 86.8029 50.9981 87.7244 54.1159C88.1739 55.6974 89.0953 57.4144 89.9044 59.0863C86.3309 62.0008 84.1284 65.3897 83.3418 67.6038C81.9259 71.7157 83.0272 73.5684 85.1173 73.9976C86.0613 74.201 87.4097 73.7491 88.3986 73.3198C89.6572 72.9132 91.1405 72.2128 92.5564 71.1735C94.9612 69.3887 97.2761 66.9035 97.1412 63.5371C97.0738 62.0008 96.6693 60.4871 96.1074 59.0185C99.1415 57.7533 103.052 57.053 108.041 57.6404C118.739 58.9056 120.852 65.6157 120.447 68.4398C120.043 71.2639 117.795 72.8002 117.054 73.2746C116.312 73.7491 116.065 73.9072 116.132 74.2461C116.222 74.7432 116.582 74.7206 117.211 74.6302C118.088 74.4721 122.83 72.3483 123.032 67.152C123.369 60.5097 117.076 53.2574 105.951 53.3251ZM23.4245 81.2951C19.8735 85.1811 14.929 86.6496 12.794 85.407C10.5015 84.074 11.4005 78.3355 15.7606 74.2235C18.4126 71.7157 21.8288 69.3887 24.0987 67.9653C24.6156 67.649 25.3798 67.1972 26.3012 66.6323C26.4585 66.542 26.5484 66.4968 26.5484 66.4968C26.7282 66.3838 26.908 66.2709 27.0878 66.1579C28.6835 72.032 27.1552 77.2058 23.4245 81.2951ZM49.2703 63.6275C48.0342 66.6549 45.4496 74.4043 43.8764 73.975C42.5279 73.6135 41.6963 67.7394 43.6067 61.933C44.5731 59.0185 46.6183 55.5392 47.8094 54.1837C49.7422 52.0148 51.8773 51.2918 52.3943 52.1729C53.046 53.3251 50.0344 61.7297 49.2703 63.6275ZM70.5987 73.8847C70.0818 74.1558 69.5873 74.3365 69.3626 74.201C69.2053 74.1106 69.5873 73.7491 69.5873 73.7491C69.5873 73.7491 72.2618 70.8572 73.3181 69.5468C73.925 68.7787 74.6441 67.8749 75.4083 66.8583C75.4083 66.9486 75.4083 67.0616 75.4083 67.152C75.4083 70.6087 72.082 72.9358 70.5987 73.8847ZM87.0501 70.1116C86.6681 69.8405 86.7355 68.9368 88.0165 66.1127C88.511 65.0057 89.6797 63.153 91.6799 61.3682C91.9047 62.0912 92.062 62.7916 92.0395 63.4467C92.017 67.8072 88.9155 69.4339 87.0501 70.1116Z" fill="#CD6799"/>
</g>
<defs>
<clipPath id="clip0_86_65">
<rect width="123" height="92" fill="white"/>
</clipPath>
</defs>
</svg>
