<svg width="125" height="125" viewBox="0 0 125 125" fill="none" xmlns="http://www.w3.org/2000/svg">
<path d="M61.1875 28.3124C41 28.954 35 43.3749 33.625 51.1874C35.4166 48.2915 41.0625 41.9375 49.375 41.9375C59.0625 41.9375 66.4375 52.75 70.9375 56.125C76.4046 60.2254 87.3904 65.6394 101.812 61.25C113.312 57.75 118.646 45.5415 119.812 39.7499C114.25 47.3124 105.812 51.8548 95.375 46.4999C88.1875 42.8124 82.8125 27.625 61.1875 28.3124Z" fill="#07B6D5"/>
<path d="M32.625 62.6249C12.4375 63.2665 6.4375 77.6874 5.0625 85.4999C6.85416 82.604 12.5 76.25 20.8125 76.25C30.5 76.25 37.875 87.0625 42.375 90.4375C47.8421 94.5379 58.8279 99.9519 73.25 95.5625C84.75 92.0625 90.0834 79.854 91.25 74.0624C85.6875 81.6249 77.25 86.1673 66.8125 80.8124C59.625 77.1249 54.25 61.9375 32.625 62.6249Z" fill="#07B6D5"/>
</svg>
