<svg width="86" height="86" viewBox="0 0 86 86" fill="none" xmlns="http://www.w3.org/2000/svg">
<g clip-path="url(#clip0_27_48)">
<path d="M86 0H0V86H86V0Z" fill="#F7DF1E"/>
<path d="M57.7702 67.1878C59.5025 70.0163 61.7562 72.0953 65.7422 72.0953C69.0908 72.0953 71.2299 70.4217 71.2299 68.1093C71.2299 65.3382 69.0321 64.3567 65.3464 62.7445L63.326 61.8777C57.4944 59.3932 53.6203 56.2808 53.6203 49.7012C53.6203 43.6402 58.2384 39.0262 65.4556 39.0262C70.5937 39.0262 74.2876 40.8145 76.9495 45.4967L70.6565 49.5374C69.271 47.0529 67.7762 46.0741 65.4556 46.0741C63.0885 46.0741 61.5883 47.5757 61.5883 49.5374C61.5883 51.9617 63.0899 52.9432 66.5572 54.4448L68.5775 55.3103C75.4439 58.2548 79.3207 61.2566 79.3207 68.0055C79.3207 75.2814 73.6051 79.2674 65.9293 79.2674C58.424 79.2674 53.5753 75.6909 51.2028 71.0032L57.7702 67.1878ZM29.2223 67.8881C30.4918 70.1405 31.6466 72.0448 34.4232 72.0448C37.0783 72.0448 38.7533 71.006 38.7533 66.9667V39.4876H46.8345V67.0759C46.8345 75.4438 41.9284 79.2524 34.7672 79.2524C28.2967 79.2524 24.5496 75.9039 22.644 71.8707L29.2223 67.8881Z" fill="black"/>
</g>
<defs>
<clipPath id="clip0_27_48">
<rect width="86" height="86" fill="white"/>
</clipPath>
</defs>
</svg>
